<svg width="120" height="120" viewBox="0 0 120 120" fill="none" xmlns="http://www.w3.org/2000/svg">
  <rect width="120" height="120" rx="24" fill="#2563EB"/>
  <path d="M30 45C30 41.6863 32.6863 39 36 39H50C53.3137 39 56 41.6863 56 45V59C56 62.3137 53.3137 65 50 65H36C32.6863 65 30 62.3137 30 59V45Z" fill="white"/>
  <path d="M64 45C64 41.6863 66.6863 39 70 39H84C87.3137 39 90 41.6863 90 45V59C90 62.3137 87.3137 65 84 65H70C66.6863 65 64 62.3137 64 59V45Z" fill="white" fill-opacity="0.7"/>
  <path d="M30 71C30 67.6863 32.6863 65 36 65H50C53.3137 65 56 67.6863 56 71V85C56 88.3137 53.3137 91 50 91H36C32.6863 91 30 88.3137 30 85V71Z" fill="white" fill-opacity="0.7"/>
  <path d="M64 71C64 67.6863 66.6863 65 70 65H84C87.3137 65 90 67.6863 90 71V85C90 88.3137 87.3137 91 84 91H70C66.6863 91 64 88.3137 64 85V71Z" fill="white"/>
  <circle cx="77" cy="52" r="3" fill="#2563EB"/>
  <circle cx="43" cy="78" r="3" fill="#2563EB"/>
</svg>
